<?xml version="1.0" encoding="utf-8"?>
<!-- Generator: Adobe Illustrator 25.0.1, SVG Export Plug-In . SVG Version: 6.00 Build 0)  -->
<svg version="1.0" id="Layer_1" xmlns="http://www.w3.org/2000/svg" xmlns:xlink="http://www.w3.org/1999/xlink" x="0px" y="0px"
	 viewBox="0 0 624 398" style="enable-background:new 0 0 624 398;" xml:space="preserve">
<style type="text/css">
	.st0{fill:none;}
	.st1{fill:#333333;}
	.st2{fill:#1389FD;}
</style>
<rect x="48.7" y="135.2" class="st0" width="526.7" height="127.6"/>
<path class="st1" d="M185.5,233.7c-6.6,0-12.3-1.5-16.9-4.5c-4.5-2.9-7.9-7.3-9.6-12.4l9.7-5.7c2.8,7.7,8.5,11.6,17.1,11.6
	c4.3,0,7.4-0.8,9.5-2.5c2.1-1.5,3.3-4,3.3-6.6c0.1-2.6-1.2-5.1-3.4-6.4c-2.3-1.5-6.4-3.1-12.2-4.9c-2.7-0.8-5.4-1.7-8-2.8
	c-2.3-1-4.4-2.2-6.5-3.5c-2.1-1.5-3.9-3.5-5-5.8c-1.2-2.5-1.7-5.3-1.7-8.1c0-6.1,2.2-10.9,6.5-14.5c4.4-3.6,9.9-5.5,15.6-5.4
	c5.1-0.1,10.1,1.3,14.5,4c4.2,2.7,7.5,6.6,9.5,11.1l-9.5,5.5c-2.9-6.4-7.7-9.6-14.5-9.6c-3.3,0-5.9,0.8-7.9,2.4
	c-1.9,1.5-3,3.8-3,6.2c-0.1,2.4,1,4.7,3,6.1c2,1.4,5.7,3,10.9,4.6c2.6,0.9,4.5,1.5,5.7,2c1.2,0.4,3,1,5.1,2c1.8,0.7,3.5,1.6,5,2.8
	c1.3,1.1,2.5,2.2,3.6,3.5c1.3,1.3,2.2,2.9,2.8,4.7c0.5,2,0.8,4,0.8,6c0,6.2-2.3,11.2-6.8,14.9S192.7,233.8,185.5,233.7z"/>
<path class="st1" d="M242.5,193.5h-12.2v23.6c0,2,0.5,3.5,1.4,4.4c1.1,0.9,2.6,1.5,4,1.5c1.8,0.1,4.1,0,6.8-0.1v9.5
	c-8.1,1-14,0.3-17.5-2.1c-3.5-2.4-5.3-6.8-5.3-13.3v-23.6h-9.1v-10.2h9.1v-10.6l10.6-3.1v13.8h12.2V193.5z"/>
<path class="st1" d="M286.6,183.3h10.6v49.2h-10.6v-7.1c-4,5.6-9.7,8.4-17.2,8.4c-6.6,0.1-12.9-2.6-17.3-7.5
	c-4.7-4.9-7.3-11.6-7.2-18.4c0-7.3,2.4-13.4,7.2-18.4c4.4-4.8,10.7-7.6,17.3-7.5c7.5,0,13.2,2.7,17.2,8.2V183.3z M259.9,219.2
	c6.2,5.9,16,5.9,22.2,0c3-3,4.5-7.1,4.4-11.3c0.1-4.2-1.5-8.3-4.4-11.2c-6.2-6-16.1-6-22.2,0c-3,3-4.6,7-4.4,11.2
	C255.4,212.1,257,216.2,259.9,219.2L259.9,219.2z"/>
<path class="st1" d="M330.4,233.7c-7.4,0-13.6-2.5-18.6-7.5c-4.9-4.9-7.5-11.5-7.4-18.4c0-7.3,2.5-13.5,7.4-18.4s11.1-7.4,18.6-7.5
	c4.6-0.1,9.1,1.1,13.1,3.4c3.8,2.1,6.9,5.4,8.9,9.2l-9.1,5.3c-1.1-2.3-2.9-4.3-5.1-5.5c-2.3-1.4-5-2.1-7.8-2.1
	c-4.1-0.1-8,1.5-10.9,4.4c-5.8,6.2-5.8,15.8,0,22c5,4.9,12.6,5.8,18.7,2.4c2.3-1.3,4.1-3.2,5.3-5.5l9.1,5.2
	c-2.1,3.9-5.2,7.2-9.1,9.3C339.5,232.6,335,233.8,330.4,233.7z"/>
<path class="st1" d="M401.2,232.5h-12.7l-20.2-22.7v22.7h-10.6v-68.9h10.6V205l19.1-21.7h13l-21.6,24.1L401.2,232.5z"/>
<path class="st1" d="M447.2,196.8c6.1,3,9.8,9.3,9.7,16c0.1,5.3-2.1,10.5-6,14.1c-4,3.7-9.2,5.7-14.7,5.6h-29.5v-68.9H434
	c5.3-0.1,10.4,1.9,14.2,5.5c3.9,3.4,6,8.4,5.9,13.6C454.1,188.6,451.8,193.3,447.2,196.8z M434,174.2h-16v18.1h16
	c2.4,0.1,4.6-0.9,6.3-2.6c1.7-1.7,2.6-4.1,2.6-6.5c0.1-2.4-0.9-4.7-2.6-6.4C438.7,175.1,436.4,174.2,434,174.2L434,174.2z
	 M436.1,221.8c2.5,0.1,4.9-0.9,6.6-2.8c1.8-1.8,2.8-4.3,2.8-6.9c0.1-2.5-0.9-5-2.8-6.8c-1.7-1.9-4.1-2.9-6.6-2.9h-18.2v19.3H436.1z"
	/>
<path class="st1" d="M463.5,232.5v-71.8h10.6v71.8L463.5,232.5z"/>
<path class="st1" d="M494.1,173.9c-1.2,1.3-2.9,2-4.7,2c-3.7,0-6.8-3-6.8-6.7c0,0,0-0.1,0-0.1c0.1-3.7,3.1-6.7,6.8-6.8
	c3.7,0.1,6.7,3.1,6.8,6.8C496.2,170.9,495.4,172.6,494.1,173.9z M484,232.5v-49.2h10.6v49.2L484,232.5z"/>
<path class="st1" d="M532,193.5h-12.2v23.6c0,2,0.5,3.5,1.4,4.4c1.1,0.9,2.6,1.5,4,1.5c1.8,0.1,4.1,0,6.8-0.1v9.5
	c-8.1,1-14,0.3-17.5-2.1c-3.5-2.4-5.3-6.8-5.3-13.3v-23.6h-9.1v-10.2h9.1v-10.6l10.6-3.1v13.8H532L532,193.5z"/>
<path class="st1" d="M551.4,222.4h23.9v10h-38.4v-7.1l23-32.1h-22v-10h36.4v7.1L551.4,222.4z"/>
<path class="st2" d="M48.7,210h37.4l-21.8,52.8l71.5-75.2H98.2l21.6-52.4L48.7,210z"/>
<rect x="31" y="119.6" class="st0" width="562" height="158.9"/>
</svg>
